<svg width="61" height="51" viewBox="0 0 61 51" fill="none" xmlns="http://www.w3.org/2000/svg">
<path d="M29.1209 25.0852C28.0311 22.0199 26.9647 19.0157 25.8796 15.9621C28.0828 14.6984 30.2836 13.437 32.5055 12.1639C33.5507 15.1635 34.5842 18.1395 35.6365 21.1625C33.4803 22.4615 31.3241 23.7581 29.1209 25.0852Z" fill="#EE4B4B"/>
<path d="M33.1963 36.6088C32.1299 33.5999 31.0777 30.6309 30.0184 27.6408C32.1816 26.3183 34.3331 25.0029 36.5339 23.6594C36.7923 24.4016 37.0366 25.1016 37.2808 25.8039C38.016 27.9273 38.7441 30.0507 39.491 32.1694C39.5897 32.4513 39.5615 32.5969 39.2914 32.766C37.3278 33.9945 35.3783 35.2441 33.4218 36.4867C33.3677 36.5219 33.309 36.5478 33.1963 36.6088Z" fill="#242424"/>
<path d="M40.4776 35.0538C41.0695 36.738 41.6356 38.347 42.1993 39.956C42.608 41.121 43.012 42.2908 43.4277 43.4535C43.5029 43.6649 43.5052 43.8105 43.2915 43.9514C41.3161 45.2621 39.3478 46.5822 37.3749 47.8976C37.342 47.9187 37.302 47.9281 37.2104 47.9657C36.1723 45.0272 35.1365 42.0958 34.0913 39.1386C36.2146 37.7786 38.3167 36.435 40.4753 35.0515L40.4776 35.0538Z" fill="#242424"/>
<path d="M40.717 7.43787C41.0271 8.33515 41.323 9.1878 41.6166 10.0451C42.2837 11.9971 42.9366 13.9537 43.6201 15.8986C43.7376 16.2298 43.6671 16.3918 43.3806 16.561C41.424 17.7213 39.4745 18.8958 37.4804 20.0914C37.4123 19.9316 37.3465 19.7954 37.2972 19.6545C36.353 16.9227 35.4135 14.1886 34.4622 11.4592C34.3729 11.2055 34.3988 11.0693 34.6454 10.9283C36.5714 9.81965 38.4904 8.69688 40.4117 7.5788C40.4892 7.53417 40.5761 7.50364 40.717 7.43787Z" fill="#242424"/>
<path d="M44.5668 18.8088C45.5721 21.7332 46.5656 24.62 47.5615 27.5161C45.5087 28.8198 43.4793 30.107 41.4053 31.4223C41.2033 30.8563 41.0084 30.316 40.8205 29.7734C40.0266 27.488 39.2374 25.2025 38.4411 22.9194C38.3707 22.715 38.326 22.5764 38.568 22.4308C40.5527 21.2446 42.5304 20.042 44.5668 18.8088Z" fill="#242424"/>
<path d="M48.4374 29.9146C49.1655 32.0967 49.8795 34.2413 50.5983 36.3858C50.8073 37.0082 51.0117 37.633 51.2371 38.2485C51.3194 38.4739 51.2841 38.5937 51.0751 38.7323C49.5812 39.7189 48.0968 40.7195 46.61 41.7178C46.1849 42.0043 45.7692 42.3003 45.2994 42.6268C45.1021 42.0889 44.9189 41.6027 44.7474 41.1118C43.9535 38.8404 43.162 36.569 42.3728 34.2953C42.3024 34.0956 42.1849 33.91 42.4762 33.7268C44.3998 32.5078 46.3117 31.2675 48.2283 30.0344C48.2824 29.9991 48.3411 29.9686 48.4374 29.9146Z" fill="#242424"/>
<path d="M45.4707 15.2551C44.449 12.2837 43.4437 9.36639 42.4314 6.42088C44.4678 5.26053 46.4948 4.10252 48.5641 2.92338C48.7426 3.44014 48.907 3.90757 49.0644 4.37734C49.8371 6.68161 50.6099 8.98587 51.3803 11.2901C51.4367 11.4593 51.533 11.6237 51.2957 11.7646C49.3744 12.9085 47.4602 14.0618 45.4707 15.2551Z" fill="#242424"/>
<path d="M49.2738 26.4193C48.3014 23.5748 47.3384 20.7655 46.3872 17.9539C46.3543 17.8599 46.4107 17.6603 46.4882 17.6133C48.4071 16.4389 50.3355 15.2762 52.3085 14.0853C52.5293 14.7148 52.743 15.3137 52.9473 15.9151C53.6731 18.069 54.3989 20.2206 55.1082 22.3792C55.1482 22.499 55.1082 22.7386 55.0213 22.7926C53.1282 24.0023 51.221 25.1955 49.2738 26.4193Z" fill="#242424"/>
<path d="M53.0175 37.3979C52.0451 34.5416 51.0798 31.7112 50.1121 28.8644C52.085 27.5983 54.0298 26.351 56.0122 25.0803C56.3927 26.2007 56.7568 27.2648 57.1185 28.3312C57.6681 29.9472 58.2083 31.5679 58.7697 33.1793C58.866 33.4564 58.8261 33.5927 58.5771 33.7548C56.7756 34.9409 54.9834 36.1412 53.189 37.3368C53.1584 37.358 53.1162 37.3627 53.0175 37.3955V37.3979Z" fill="#242424"/>
<path d="M27.8482 25.5078C27.4019 25.543 26.9862 25.5853 26.5681 25.6088C24.9897 25.6981 23.409 25.7732 21.8306 25.8742C21.4994 25.8954 21.3467 25.7991 21.234 25.4796C20.2546 22.6868 19.254 19.901 18.2628 17.1152C18.251 17.08 18.2463 17.0424 18.2275 16.9578C18.8899 16.8944 19.5382 16.8263 20.1888 16.7723C21.5417 16.6572 22.8969 16.5632 24.2451 16.4223C24.5951 16.3847 24.6914 16.5162 24.7901 16.8005C25.2833 18.2403 25.793 19.6778 26.3027 21.113C26.7818 22.4613 27.2727 23.8072 27.7566 25.1555C27.7942 25.2635 27.8153 25.3763 27.8529 25.5125L27.8482 25.5078Z" fill="#EE4B4B"/>
<path d="M22.3612 28.3994C23.848 28.3195 25.3324 28.2397 26.8168 28.1622C27.3829 28.1316 27.949 28.0941 28.515 28.0894C28.6278 28.0894 28.811 28.2021 28.8485 28.3055C29.8609 31.1218 30.8591 33.9404 31.8573 36.7615C31.8832 36.8319 31.8832 36.9118 31.8996 37.0128C31.2631 37.0433 30.6477 37.0833 30.0323 37.1021C28.5972 37.1443 27.1621 37.1725 25.727 37.2195C25.5227 37.2265 25.4193 37.1655 25.3512 36.9729C24.3506 34.1495 23.3477 31.3261 22.3447 28.5051C22.34 28.4957 22.3494 28.4793 22.3612 28.4041V28.3994Z" fill="#242424"/>
<path d="M26.3498 39.6483C26.8078 39.6483 27.2001 39.653 27.5923 39.6483C29.2012 39.6225 30.8102 39.6037 32.4167 39.5567C32.7573 39.5473 32.8982 39.6695 33.0039 39.9725C33.8143 42.2908 34.641 44.6045 35.4608 46.9181C35.6252 47.3832 35.7896 47.8506 35.9728 48.3721C35.7379 48.3838 35.5594 48.4026 35.3832 48.4003C33.5394 48.3862 31.6956 48.3627 29.8518 48.3627C29.5488 48.3627 29.4244 48.264 29.3234 47.9822C28.3557 45.241 27.3715 42.5069 26.3498 39.646V39.6483Z" fill="#242424"/>
<path d="M1.65673 37.3181C2.12414 35.2276 2.58215 33.1864 3.03781 31.1452C3.21162 30.3607 3.39483 29.5785 3.5522 28.7917C3.60387 28.5356 3.72366 28.4393 3.97263 28.4252C5.56511 28.336 7.15524 28.2373 8.74772 28.1481C9.13292 28.1269 9.38894 28.4534 9.30204 28.8457C8.98965 30.2879 8.67491 31.7301 8.36017 33.1723C8.09241 34.3961 7.8223 35.6175 7.55219 36.839C7.51226 37.0175 7.50286 37.1819 7.22805 37.1866C5.46177 37.2265 3.69782 37.2853 1.93153 37.3369C1.85402 37.3369 1.77651 37.3252 1.65438 37.3158L1.65673 37.3181Z" fill="#242424"/>
<path d="M6.64793 14.7149C7.29855 11.8 7.93507 8.9531 8.57394 6.08511C10.4999 5.85257 12.4142 5.62238 14.3895 5.38514C14.2228 6.17906 14.0701 6.90722 13.9127 7.63538C13.4665 9.69301 13.0132 11.7506 12.5739 13.8106C12.5129 14.1019 12.4001 14.2052 12.0854 14.2311C10.5375 14.3556 8.99437 14.5153 7.44652 14.6609C7.1999 14.6844 6.95093 14.6938 6.64559 14.7149H6.64793Z" fill="#242424"/>
<path d="M19.5756 32.0238C18.1475 32.0801 16.7547 32.1389 15.3618 32.1929C15.0588 32.2046 14.7394 32.1483 14.4552 32.2234C13.7247 32.4137 13.3348 32.0872 12.9285 31.5047C11.5098 29.4658 10.0324 27.4693 8.57619 25.4539C8.54566 25.4116 8.53391 25.36 8.49163 25.266C8.80402 25.2331 9.09527 25.1908 9.38652 25.172C11.0166 25.064 12.649 24.9583 14.2791 24.8667C14.3965 24.8596 14.5656 24.9278 14.6314 25.0194C16.2685 27.2954 17.8938 29.5809 19.5215 31.864C19.5427 31.8946 19.545 31.9369 19.5732 32.0238H19.5756Z" fill="#242424"/>
<path d="M25.3681 41.1069C24.3018 41.1069 23.2354 41.1022 22.1691 41.1069C21.4973 41.1093 20.8256 41.1398 20.1538 41.1304C20.0058 41.1304 19.8062 41.0482 19.724 40.9355C18.155 38.7745 16.6001 36.6041 15.0428 34.4361C15.0217 34.4056 15.017 34.3633 14.9865 34.2693C15.5619 34.2388 16.1162 34.2059 16.6729 34.1848C17.9906 34.1354 19.3082 34.1002 20.6236 34.0391C20.95 34.025 21.1426 34.1213 21.3329 34.3962C22.3945 35.9182 23.5149 37.4004 24.5413 38.9436C24.9453 39.552 25.1638 40.2848 25.4644 40.9613C25.4315 41.0106 25.3986 41.0576 25.3658 41.1069H25.3681Z" fill="#242424"/>
<path d="M10.3309 29.9425C10.998 30.8632 11.5993 31.6924 12.1982 32.5215C13.4102 34.1963 14.6128 35.8781 15.8412 37.5411C16.0831 37.8676 16.1724 38.1589 16.0596 38.5535C15.921 39.0327 15.8388 39.5259 15.7237 40.0451C14.3098 39.5142 12.924 38.9927 11.5359 38.4713C10.7114 38.1612 9.8917 37.8371 9.05788 37.5482C8.80656 37.4613 8.722 37.3556 8.77837 37.0995C9.19411 35.1969 9.6028 33.2943 10.0138 31.3894C10.1101 30.9431 10.2064 30.4968 10.3286 29.9425H10.3309Z" fill="#242424"/>
<path d="M7.29148 25.7545C6.21809 25.8226 5.23629 25.886 4.20048 25.9518C4.26624 25.6041 4.31792 25.2988 4.38368 24.9981C4.91921 22.5811 5.46882 20.1688 5.98556 17.7471C6.07716 17.3196 6.21104 17.1575 6.67845 17.127C8.24274 17.0236 9.79999 16.8475 11.3596 16.7042C11.5381 16.6878 11.7213 16.7042 11.9327 16.7042C11.7988 17.3266 11.7143 17.9421 11.524 18.5246C11.4324 18.8041 11.1552 19.0272 10.9532 19.2668C9.52988 20.9439 8.10886 22.6234 6.67375 24.2911C6.47175 24.5237 6.49994 24.6834 6.66905 24.8948C6.87105 25.1508 7.05191 25.4209 7.29148 25.7568V25.7545Z" fill="#242424"/>
<path d="M32.8837 1.56325C32.2919 2.27732 31.7634 2.92561 31.2255 3.56921C30.1944 4.80002 29.1633 6.03084 28.1204 7.25227C28.0218 7.36736 27.8526 7.46837 27.707 7.48716C26.0605 7.68212 24.4117 7.85828 22.7652 8.0415C22.5185 8.06968 22.2719 8.10022 21.8961 8.14485C22.1615 7.8113 22.3518 7.55997 22.5561 7.32039C23.8785 5.74898 25.2079 4.18462 26.5232 2.60616C26.737 2.35013 26.9906 2.25617 27.3007 2.21859C29.0388 2.00484 30.7745 1.78405 32.5103 1.5656C32.5995 1.55386 32.6935 1.5656 32.8861 1.5656L32.8837 1.56325Z" fill="#242424"/>
<path d="M8.48693 23.9341C9.41 22.8349 10.2697 21.8084 11.1364 20.7843C11.9514 19.8189 12.7688 18.8535 13.5955 17.8975C13.6871 17.7918 13.8445 17.6955 13.9807 17.6814C14.8968 17.5898 15.8175 17.5146 16.7359 17.4559C16.8228 17.4512 16.9684 17.5663 17.0036 17.6556C17.2338 18.2428 17.4523 18.8347 17.6425 19.4337C17.6848 19.5676 17.6543 19.7813 17.5673 19.887C16.609 21.0591 15.639 22.2218 14.6619 23.3775C14.5867 23.4667 14.4458 23.5419 14.3331 23.5489C12.6396 23.6664 10.9438 23.7721 9.24794 23.8801C9.02715 23.8942 8.80636 23.9106 8.48693 23.9341Z" fill="#242424"/>
<path d="M15.6414 5.57282C17.3114 6.31742 18.9649 7.05497 20.6725 7.81836C20.2685 8.30223 19.9044 8.74617 19.531 9.18542C18.063 10.9118 16.5926 12.6383 15.1223 14.36C14.9884 14.5174 14.8146 14.7828 14.6831 14.7687C14.3824 14.7358 14.0747 14.5949 13.8164 14.4281C13.7365 14.3765 13.7694 14.0946 13.8046 13.9278C14.0747 12.6265 14.3613 11.3276 14.6408 10.0287C14.9367 8.64987 15.2327 7.27342 15.531 5.89462C15.5521 5.79596 15.5968 5.69966 15.6414 5.57282Z" fill="#242424"/>
<path d="M26.4671 9.22528C25.6544 10.2447 24.9216 11.1584 23.7965 11.748C21.4665 12.9718 19.2046 14.3294 16.8934 15.5884C16.4683 15.821 15.9281 15.8445 15.4419 15.9643C15.4137 15.9126 15.3878 15.8609 15.3597 15.8092C15.6697 15.4311 15.975 15.0505 16.2898 14.6771C17.591 13.1385 18.8875 11.5977 20.2052 10.0756C20.332 9.92995 20.5834 9.84774 20.7877 9.82425C21.8987 9.69271 23.0144 9.58936 24.1277 9.47426C24.8723 9.39675 25.6168 9.31689 26.4647 9.22763L26.4671 9.22528Z" fill="#242424"/>
<path d="M28.5599 49.6993C27.7426 49.6993 26.9674 49.704 26.1923 49.6922C26.1125 49.6922 26.0115 49.5983 25.9575 49.5208C24.4402 47.435 22.9299 45.3491 21.4173 43.261C21.3867 43.221 21.3726 43.1694 21.3304 43.0778C21.4783 43.0684 21.6028 43.0519 21.725 43.0519C23.0168 43.0331 24.311 43.0308 25.6005 42.9885C26.0021 42.9744 26.19 43.0825 26.3309 43.4841C27.0497 45.5559 27.8083 47.6135 28.5599 49.7016V49.6993Z" fill="#242424"/>
<path d="M18.2437 21.0355C19.007 23.1471 19.7516 25.2071 20.4938 27.2694C20.8156 28.1573 21.1233 29.0522 21.4591 29.9331C21.5695 30.2243 21.5672 30.4451 21.3394 30.6777C21.1397 30.8797 20.9753 31.1193 20.7522 31.3941C20.5455 31.1193 20.3552 30.8797 20.1791 30.6307C18.7252 28.5801 17.2783 26.5272 15.8221 24.4813C15.6929 24.2981 15.6341 24.1595 15.7986 23.9645C16.6042 23.0109 17.4028 22.0478 18.2437 21.0355Z" fill="#242424"/>
<path d="M18.9388 15.5487C19.8173 15.0508 20.6981 14.5504 21.5789 14.0525C22.6663 13.4371 23.7491 12.8099 24.8507 12.2203C25.1279 12.0724 25.4685 12.0207 25.7879 11.9878C27.5236 11.8069 29.2617 11.6449 31.021 11.5298C30.4338 11.868 29.8489 12.2109 29.2594 12.5468C27.876 13.3361 26.5066 14.1535 25.0973 14.891C24.6652 15.1165 24.1226 15.1658 23.6247 15.2175C22.1473 15.3726 20.6628 15.49 19.1831 15.6215C19.1079 15.6286 19.0304 15.6215 18.9529 15.6215C18.9482 15.5957 18.9435 15.5699 18.9388 15.544V15.5487Z" fill="#EE4B4B"/>
<path d="M39.2443 6.83187C38.1028 7.48722 36.9848 8.12611 35.8691 8.76736C35.195 9.15258 34.5091 9.52136 33.8491 9.93241C33.4498 10.1814 33.0247 10.2519 32.5761 10.2965C30.939 10.4609 29.3019 10.63 27.6648 10.7968C27.6178 10.8015 27.5661 10.7898 27.4111 10.778C28.0147 10.4304 28.5315 10.1274 29.0529 9.83376C30.3847 9.08446 31.7094 8.32577 33.0552 7.59996C33.33 7.45198 33.673 7.40031 33.9924 7.36272C35.7047 7.16307 37.4216 6.9822 39.1362 6.79664C39.1574 6.79664 39.1809 6.81073 39.2443 6.83187Z" fill="#242424"/>
<path d="M35.5239 6.17653C37.0812 5.29805 38.5961 4.50177 40.0477 3.60215C40.9261 3.0572 41.8586 2.89278 42.8475 2.79413C44.2591 2.65085 45.666 2.46059 47.0988 2.34314C46.5116 2.68138 45.9244 3.02432 45.3348 3.36021C44.1322 4.04609 42.9367 4.74136 41.7224 5.4014C41.4593 5.54468 41.1281 5.59401 40.8228 5.62924C39.1105 5.83125 37.3959 6.01446 35.6813 6.20237C35.6555 6.20472 35.6296 6.19532 35.5239 6.17653Z" fill="#242424"/>
<path d="M29.356 8.60295C28.8768 8.01808 28.9731 8.11439 29.3724 7.64696C30.8381 5.92052 32.2873 4.17764 33.7412 2.44181C33.8234 2.34316 33.9173 2.2539 34.0254 2.13646C34.6408 3.06662 35.2421 3.97564 35.8762 4.93399C33.6966 6.16011 31.5333 7.37683 29.356 8.60295Z" fill="#242424"/>
<path d="M14.0798 40.8979C12.4732 40.8979 10.8666 40.9355 9.26239 40.8768C8.74565 40.858 8.23362 40.5972 7.72863 40.4187C6.11031 39.8409 4.49669 39.249 2.88307 38.6618C2.8361 38.6453 2.79382 38.6101 2.66464 38.5349C3.06158 38.5161 3.37632 38.4973 3.69106 38.4903C4.92887 38.4574 6.16668 38.4269 7.40449 38.401C7.54777 38.3987 7.70044 38.401 7.83197 38.4504C9.9177 39.2137 12.0011 39.9842 14.0844 40.7523C14.0844 40.8016 14.0821 40.8533 14.0798 40.9026V40.8979Z" fill="#242424"/>
<path d="M20.4938 44.0641C19.0963 43.9984 17.788 44.2027 16.4939 43.6343C15.0329 42.9907 13.4921 42.5233 11.9865 41.9783C11.8902 41.9431 11.801 41.8914 11.7117 41.7927C12.2308 41.7927 12.7475 41.7998 13.2666 41.7927C14.2155 41.7787 15.1644 41.734 16.1134 41.7481C16.522 41.7552 16.9401 41.8468 17.3371 41.9619C17.8162 42.0981 18.2648 42.3588 18.7487 42.4598C19.6271 42.6454 20.0147 43.3195 20.4938 44.0641Z" fill="#242424"/>
</svg>
